<svg xmlns="http://www.w3.org/2000/svg" xmlns:xlink="http://www.w3.org/1999/xlink" viewBox="0 0 176 258.88"><defs><style>.cls-1{isolation:isolate;}.cls-2{fill:#e8d3bf;}.cls-3{fill:#e0c6ad;}.cls-4{opacity:0.2;mix-blend-mode:multiply;fill:url(#linear-gradient);}</style><linearGradient id="linear-gradient" x1="87.39" y1="252.88" x2="87.39" y2="11.14" gradientUnits="userSpaceOnUse"><stop offset="0" stop-color="#ffc954" stop-opacity="0"/><stop offset="0.12" stop-color="#fac352" stop-opacity="0.08"/><stop offset="0.35" stop-color="#eeb34c" stop-opacity="0.29"/><stop offset="0.67" stop-color="#da9942" stop-opacity="0.62"/><stop offset="1" stop-color="#c37b37"/></linearGradient></defs><title>cone</title><g class="cls-1"><g id="Layer_2" data-name="Layer 2"><g id="Layer_1-2" data-name="Layer 1"><g id="cone"><path class="cls-2" d="M175.89,3.07a4,4,0,0,0-4.82-3C115.29,13.44,71.78,13.43,4.78.08A4,4,0,0,0,3.22,7.92l2,.4L84.68,256.39c1.26,3.41,13.1,3.28,13.94-.14L171.83,8.15l1.1-.26A4,4,0,0,0,175.89,3.07Z"/><path class="cls-3" d="M148.41,49.82c3.34-20.43,5.61-36.66,6.87-46.24l-3.1.61c-1.3,9.8-3.57,25.92-6.87,46a311.63,311.63,0,0,1-31.1,2.2c.88-19.87.85-33.65.43-43.17-1,.07-1.94.15-2.92.21.4,9.35.43,23-.47,43-13.49.21-27.88-.27-42.88-1.48h-.06c-1.23-16.6-2.19-31-2.76-42l-3-.25c.57,11,1.52,25.39,2.76,42-13.88-1.21-26.7-2.89-37.87-4.82a346.26,346.26,0,0,1-1.78-42l-3-.5a346.64,346.64,0,0,0,1.7,42q-4-.72-7.72-1.49l1,3.25q3.39.68,7,1.32c1.13,10.82,2.84,23.18,5.37,37.2h0l8.46,26.41q-2.58-11.46-4.66-22.5a352.75,352.75,0,0,0,35,5.31c1.05,12.39,2.18,25.24,3.37,38.19-9.65-.79-19.12-1.9-28-3.13l1,3.17c8.69,1.18,17.9,2.23,27.28,3,1.37,14.84,2.8,29.78,4.27,44.3-5.39-.21-11-.56-16.74-1l1,3.08q8.28.65,16,.94c1.47,14.46,3,28.45,4.44,41.47-2.41-.18-4.79-.43-7.15-.73l1,3.16c2.15.25,4.3.47,6.49.62.85,7.45,1.7,14.56,2.53,21.22l-2.1-.22,1,3.13,1.48.14c.23,1.76.45,3.48.67,5.17a7.18,7.18,0,0,0,3.12,1.23c-.27-2-.53-4-.8-6.14,1.3.1,2.58.18,3.83.25q-.39,3-.79,6.15a14,14,0,0,0,6.07-.92c.64-1.68,1.29-3.35,1.92-5.05l.83,0,.89-3-.62,0q1.89-5.18,3.7-10.46l19.25-65.26c3.36-13.12,6.46-26.22,9.29-39,.8-.12,1.57-.26,2.35-.39l.94-3.19c-.86.15-1.72.31-2.6.45,2.85-13.05,5.43-25.77,7.75-37.87q3.18-.54,6.24-1.2l1-3.27c-2.17.49-4.37.93-6.62,1.32,2.58-13.62,4.82-26.41,6.73-38q5.69-.75,11.23-1.8l1-3.32Q154.49,49,148.41,49.82ZM33.22,86.36C30.65,72.28,28.91,59.87,27.76,49c11.58,2,24.5,3.63,37.78,4.77.89,11.8,1.92,24.62,3,38A341,341,0,0,1,33.22,86.36ZM68.54,54c10.1.81,23.07,1.53,37.19,1.53l5.38,0c-.53,10.86-1.32,23.49-2.45,38.18-11.72.15-22.64-.42-30.92-1.07q-3.1-.26-6.16-.54C70.46,78.69,69.43,65.85,68.54,54Zm3.3,41.15c10.63,1,21.73,1.61,32.68,1.61q2,0,3.9,0c-.9,11.28-2,23.74-3.32,37.5q-9.81.17-20.77-.38c-3-.15-6.09-.35-9.13-.57C74,120.38,72.89,107.56,71.84,95.18Zm3.64,41.16q4.33.32,8.7.54,8.43.42,16.19.42c1.5,0,3,0,4.44,0-1.29,13.2-2.79,27.58-4.54,43.22q-9.76.36-20.54,0C78.27,166,76.84,151.14,75.48,136.34Zm9,88.71c-1.48-13-3-27-4.45-41.54q5,.15,9.79.15c3.46,0,6.82-.06,10.12-.18Q97.75,203,95,225.12C91.46,225.25,88,225.22,84.48,225.05Zm2.89,24.36c-.83-6.68-1.69-13.82-2.55-21.33,1.9.08,3.8.14,5.72.14,1.37,0,2.75,0,4.13-.07q-1.29,10.47-2.7,21.56C90.47,249.64,88.94,249.54,87.37,249.41Zm6.71,7.48c.17-1.36.35-2.72.52-4.06l1,0C95.1,254.21,94.59,255.55,94.08,256.89Zm2.62-7-1.72,0q1.42-11.22,2.73-21.82,3.32-.18,6.71-.55Q100.72,238.89,96.7,249.87Zm8.74-25.57q-3.73.45-7.36.67,2.7-22.15,4.88-41.62c5.1-.24,10-.61,14.71-1.14C113.91,196.4,109.83,210.54,105.44,224.3Zm13-45.19c-4.83.57-9.9,1-15.18,1.24,1.73-15.61,3.23-30,4.52-43.15A202.93,202.93,0,0,0,129,135.57C125.8,149.86,122.31,164.49,118.48,179.11Zm11.17-46.64a197.05,197.05,0,0,1-21.54,1.72c1.32-13.74,2.41-26.2,3.29-37.49a216.79,216.79,0,0,0,26-2.08C135.1,106.72,132.51,119.44,129.65,132.47Zm8.37-41a212.74,212.74,0,0,1-26.38,2.16c1.13-14.66,1.91-27.29,2.43-38.18,10.05-.21,20.47-.83,30.72-2.07C142.86,65,140.61,77.84,138,91.49Z"/><path class="cls-4" d="M98.62,256.25,171.83,8.15l1.1-.26a4.14,4.14,0,0,0,1.25-.55c-.71.15-1.43.33-2.18.54-83,24-167,0-167,0S3.29,7.16.6,6.08A3.94,3.94,0,0,0,3.22,7.92l2,.4,8,24.9C83,74.74,122.35,59.09,128,94.88c3.85,24.38-20.69,102.66-34,163.84C96.33,258.4,98.29,257.57,98.62,256.25Z"/></g></g></g></g></svg>