<svg xmlns="http://www.w3.org/2000/svg" xmlns:xlink="http://www.w3.org/1999/xlink" viewBox="0 0 150 147.22"><defs><style>.cls-1{fill:url(#radial-gradient);}</style><radialGradient id="radial-gradient" cx="47" cy="36.61" r="147.5" gradientUnits="userSpaceOnUse"><stop offset="0.42" stop-color="#ffc9e2"/><stop offset="0.57" stop-color="#ffbad7"/><stop offset="0.85" stop-color="#ff92bb"/><stop offset="1" stop-color="#ff7bab"/></radialGradient></defs><title>ice1</title><g id="Layer_2" data-name="Layer 2"><g id="Layer_1-2" data-name="Layer 1"><path id="ice1" class="cls-1" d="M150,75A75,75,0,0,0,0,75c0,20.87,8.53,34.93,22.29,43.74.31.2.63.38,1,.56-1.41,1.58-2.11,3.6,1.75,4.7,7,2,7,0,8-1s.89,1.7,6,0a118.48,118.48,0,0,1,36-6,134.29,134.29,0,0,1,29.6,3.34,3.12,3.12,0,0,1,2.46,3.29,2.2,2.2,0,0,1-.06.37c-1,4-5.1,16.08-1,21,5,6,8-1,8-11,0-4.75,0-5.8-3.26-10.63a1,1,0,0,1,1-1.53q1.38.21,2.73.3a1,1,0,0,1,.71.34A3.73,3.73,0,0,0,118,124c1.25,0,1.63-.69,1.65-1.43l.45-.22A10.79,10.79,0,0,0,126,124c2.74,0,.79-2.34-.71-3.82.28-.14.55-.29.82-.45C140.81,111,150,96.67,150,75Z"/></g></g></svg>