<svg xmlns="http://www.w3.org/2000/svg" xmlns:xlink="http://www.w3.org/1999/xlink" viewBox="0 0 200 175.69"><defs><style>.cls-1{fill:url(#radial-gradient);}</style><radialGradient id="radial-gradient" cx="50" cy="48.35" r="219.82" gradientUnits="userSpaceOnUse"><stop offset="0.24" stop-color="#8ee7f7"/><stop offset="1" stop-color="#00bfe9"/></radialGradient></defs><title>ice2</title><g id="Layer_2" data-name="Layer 2"><g id="Layer_1-2" data-name="Layer 1"><path id="ice2" class="cls-1" d="M100,0A100,100,0,0,0,0,100c0,21,6.47,37.57,17.51,50.08a3.71,3.71,0,0,0,2.07,1.16l3.92.76A3.59,3.59,0,0,1,26,154,3.71,3.71,0,0,0,28,155.5c2.22.89,3.45.59,4-.19a3.5,3.5,0,0,1,3.37-1.16l1.64.28a2.24,2.24,0,0,1,1.88,2A4.36,4.36,0,0,1,38,159.5c-3,4-6,18,4,16s-1-12,0-18v0a2.27,2.27,0,0,1,2.6-1.82c51.1,7.95,89.37,6.52,135.84-4.31a3.74,3.74,0,0,0,1.94-1.14C193.49,137.69,200,121.06,200,100A100,100,0,0,0,100,0Z"/></g></g></svg>